<svg width="14" height="14" viewBox="0 0 14 14" fill="none" xmlns="http://www.w3.org/2000/svg">
<path d="M12.6396 4.26244C12.4972 4.13354 12.3242 4.05055 12.1402 4.02293C11.9563 3.99532 11.7689 4.02421 11.5994 4.10629L9.25021 5.23704L7.87154 2.55555C7.78546 2.38723 7.65927 2.24693 7.5061 2.14923C7.35292 2.05153 7.17836 2 7.00054 2C6.82273 2 6.64816 2.05153 6.49499 2.14923C6.34182 2.24693 6.21563 2.38723 6.12954 2.55555L4.75088 5.23704L2.40167 4.10629C2.23258 4.02281 2.04519 3.99248 1.86092 4.01878C1.67665 4.04507 1.50295 4.12693 1.35965 4.25499C1.21636 4.38306 1.10926 4.55215 1.05061 4.74296C0.991957 4.93376 0.984113 5.13856 1.02797 5.33396L2.29217 11.1708C2.34481 11.4076 2.46974 11.6183 2.64677 11.7687C2.82379 11.9192 3.04256 12.0007 3.26769 12C3.35706 11.9993 3.44589 11.9848 3.53148 11.9569C5.80042 11.282 8.19569 11.282 10.4646 11.9569C10.5938 11.9965 10.7289 12.0073 10.8621 11.9889C10.9952 11.9705 11.1235 11.9231 11.2392 11.8497C11.355 11.7763 11.4558 11.6783 11.5357 11.5616C11.6156 11.4449 11.6728 11.312 11.7039 11.1708L12.9731 5.33396C13.016 5.1395 13.0075 4.93591 12.9485 4.74644C12.8895 4.55697 12.7825 4.38926 12.6396 4.26244ZM10.5891 10.6539C8.23568 9.99331 5.76541 9.99331 3.41203 10.6539L2.28221 5.46319L4.43234 6.49702C4.65963 6.60732 4.91699 6.62092 5.15313 6.5351C5.38928 6.44928 5.58685 6.27034 5.70649 6.03395L7.00054 3.51938L8.2946 6.03395C8.41423 6.27034 8.61181 6.44928 8.84795 6.5351C9.0841 6.62092 9.34146 6.60732 9.56875 6.49702L11.7189 5.46319L10.5891 10.6539Z" fill="white"/>
<path d="M12.6396 4.26244C12.4972 4.13354 12.3242 4.05055 12.1402 4.02293C11.9563 3.99532 11.7689 4.02421 11.5994 4.10629L9.25021 5.23704L7.87154 2.55555C7.78546 2.38723 7.65927 2.24693 7.5061 2.14923C7.35292 2.05153 7.17836 2 7.00054 2C6.82273 2 6.64816 2.05153 6.49499 2.14923C6.34182 2.24693 6.21563 2.38723 6.12954 2.55555L4.75088 5.23704L2.40167 4.10629C2.23258 4.02281 2.04519 3.99248 1.86092 4.01878C1.67665 4.04507 1.50295 4.12693 1.35965 4.25499C1.21636 4.38306 1.10926 4.55215 1.05061 4.74296C0.991957 4.93376 0.984113 5.13856 1.02797 5.33396L2.29217 11.1708C2.34481 11.4076 2.46974 11.6183 2.64677 11.7687C2.82379 11.9192 3.04256 12.0007 3.26769 12C3.35706 11.9993 3.44589 11.9848 3.53148 11.9569C5.80042 11.282 8.19569 11.282 10.4646 11.9569C10.5938 11.9965 10.7289 12.0073 10.8621 11.9889C10.9952 11.9705 11.1235 11.9231 11.2392 11.8497C11.355 11.7763 11.4558 11.6783 11.5357 11.5616C11.6156 11.4449 11.6728 11.312 11.7039 11.1708L12.9731 5.33396C13.016 5.1395 13.0075 4.93591 12.9485 4.74644C12.8895 4.55697 12.7825 4.38926 12.6396 4.26244ZM10.5891 10.6539C8.23568 9.99331 5.76541 9.99331 3.41203 10.6539L2.28221 5.46319L4.43234 6.49702C4.65963 6.60732 4.91699 6.62092 5.15313 6.5351C5.38928 6.44928 5.58685 6.27034 5.70649 6.03395L7.00054 3.51938L8.2946 6.03395C8.41423 6.27034 8.61181 6.44928 8.84795 6.5351C9.0841 6.62092 9.34146 6.60732 9.56875 6.49702L11.7189 5.46319L10.5891 10.6539Z" fill="url(#paint0_linear_1548_13831)"/>
<path d="M12.6396 4.26244C12.4972 4.13354 12.3242 4.05055 12.1402 4.02293C11.9563 3.99532 11.7689 4.02421 11.5994 4.10629L9.25021 5.23704L7.87154 2.55555C7.78546 2.38723 7.65927 2.24693 7.5061 2.14923C7.35292 2.05153 7.17836 2 7.00054 2C6.82273 2 6.64816 2.05153 6.49499 2.14923C6.34182 2.24693 6.21563 2.38723 6.12954 2.55555L4.75088 5.23704L2.40167 4.10629C2.23258 4.02281 2.04519 3.99248 1.86092 4.01878C1.67665 4.04507 1.50295 4.12693 1.35965 4.25499C1.21636 4.38306 1.10926 4.55215 1.05061 4.74296C0.991957 4.93376 0.984113 5.13856 1.02797 5.33396L2.29217 11.1708C2.34481 11.4076 2.46974 11.6183 2.64677 11.7687C2.82379 11.9192 3.04256 12.0007 3.26769 12C3.35706 11.9993 3.44589 11.9848 3.53148 11.9569C5.80042 11.282 8.19569 11.282 10.4646 11.9569C10.5938 11.9965 10.7289 12.0073 10.8621 11.9889C10.9952 11.9705 11.1235 11.9231 11.2392 11.8497C11.355 11.7763 11.4558 11.6783 11.5357 11.5616C11.6156 11.4449 11.6728 11.312 11.7039 11.1708L12.9731 5.33396C13.016 5.1395 13.0075 4.93591 12.9485 4.74644C12.8895 4.55697 12.7825 4.38926 12.6396 4.26244ZM10.5891 10.6539C8.23568 9.99331 5.76541 9.99331 3.41203 10.6539L2.28221 5.46319L4.43234 6.49702C4.65963 6.60732 4.91699 6.62092 5.15313 6.5351C5.38928 6.44928 5.58685 6.27034 5.70649 6.03395L7.00054 3.51938L8.2946 6.03395C8.41423 6.27034 8.61181 6.44928 8.84795 6.5351C9.0841 6.62092 9.34146 6.60732 9.56875 6.49702L11.7189 5.46319L10.5891 10.6539Z" fill="url(#paint1_linear_1548_13831)"/>
<path d="M2.875 6.25676L3.75 10.0405C5 9.5 8.78545 9.5 10.25 9.97297L11.0625 6.39189L9.75 7C9.58333 7.11261 9.075 7.21622 8.625 7C8.175 6.78378 7.875 6.36937 7.8125 6.18919L7.00054 4.43243L6.1875 6.18919C6.08333 6.39859 5.6625 6.83784 5.3125 7C4.9625 7.16216 4.46005 7 4.3125 6.93243L2.875 6.25676Z" fill="white"/>
<path d="M2.875 6.25676L3.75 10.0405C5 9.5 8.78545 9.5 10.25 9.97297L11.0625 6.39189L9.75 7C9.58333 7.11261 9.075 7.21622 8.625 7C8.175 6.78378 7.875 6.36937 7.8125 6.18919L7.00054 4.43243L6.1875 6.18919C6.08333 6.39859 5.6625 6.83784 5.3125 7C4.9625 7.16216 4.46005 7 4.3125 6.93243L2.875 6.25676Z" fill="url(#paint2_linear_1548_13831)"/>
<path d="M2.875 6.25676L3.75 10.0405C5 9.5 8.78545 9.5 10.25 9.97297L11.0625 6.39189L9.75 7C9.58333 7.11261 9.075 7.21622 8.625 7C8.175 6.78378 7.875 6.36937 7.8125 6.18919L7.00054 4.43243L6.1875 6.18919C6.08333 6.39859 5.6625 6.83784 5.3125 7C4.9625 7.16216 4.46005 7 4.3125 6.93243L2.875 6.25676Z" fill="url(#paint3_linear_1548_13831)"/>
<defs>
<linearGradient id="paint0_linear_1548_13831" x1="1" y1="12" x2="14.5935" y2="6.57914" gradientUnits="userSpaceOnUse">
<stop stop-color="#FBC82F"/>
<stop offset="1" stop-color="#FFF48A"/>
</linearGradient>
<linearGradient id="paint1_linear_1548_13831" x1="1" y1="12" x2="14.5935" y2="6.57914" gradientUnits="userSpaceOnUse">
<stop stop-color="#FBC82F"/>
<stop offset="1" stop-color="#FFF48A"/>
</linearGradient>
<linearGradient id="paint2_linear_1548_13831" x1="1" y1="12" x2="14.5935" y2="6.57914" gradientUnits="userSpaceOnUse">
<stop stop-color="#FBC82F"/>
<stop offset="1" stop-color="#FFF48A"/>
</linearGradient>
<linearGradient id="paint3_linear_1548_13831" x1="1" y1="12" x2="14.5935" y2="6.57914" gradientUnits="userSpaceOnUse">
<stop stop-color="#FBC82F"/>
<stop offset="1" stop-color="#FFF48A"/>
</linearGradient>
</defs>
</svg>
